<mxfile host="app.diagrams.net" agent="Mozilla/5.0 (Windows NT 10.0; Win64; x64) AppleWebKit/537.36 (KHTML, like Gecko) Chrome/130.0.0.0 Safari/537.36" version="24.8.3">
  <diagram name="Page-1" id="0yfuxt6OHuqBoyft1UoO">
    <mxGraphModel dx="2074" dy="1104" grid="1" gridSize="10" guides="1" tooltips="1" connect="1" arrows="1" fold="1" page="1" pageScale="1" pageWidth="850" pageHeight="1100" math="0" shadow="0">
      <root>
        <mxCell id="0" />
        <mxCell id="1" parent="0" />
        <mxCell id="f_99bIKKR3FF1vnU0Z8s-12" value="" style="rounded=0;whiteSpace=wrap;html=1;dashed=1;fillColor=none;" vertex="1" parent="1">
          <mxGeometry x="40" y="270" width="930" height="600" as="geometry" />
        </mxCell>
        <mxCell id="f_99bIKKR3FF1vnU0Z8s-29" style="rounded=0;orthogonalLoop=1;jettySize=auto;html=1;dashed=1;entryX=0.5;entryY=0;entryDx=0;entryDy=0;entryPerimeter=0;" edge="1" parent="1" source="f_99bIKKR3FF1vnU0Z8s-13" target="f_99bIKKR3FF1vnU0Z8s-34">
          <mxGeometry relative="1" as="geometry" />
        </mxCell>
        <mxCell id="f_99bIKKR3FF1vnU0Z8s-43" value="Authenticates with" style="edgeLabel;html=1;align=center;verticalAlign=middle;resizable=0;points=[];" vertex="1" connectable="0" parent="f_99bIKKR3FF1vnU0Z8s-29">
          <mxGeometry x="-0.1985" y="-2" relative="1" as="geometry">
            <mxPoint as="offset" />
          </mxGeometry>
        </mxCell>
        <mxCell id="f_99bIKKR3FF1vnU0Z8s-41" style="rounded=0;orthogonalLoop=1;jettySize=auto;html=1;dashed=1;" edge="1" parent="1" source="f_99bIKKR3FF1vnU0Z8s-13" target="f_99bIKKR3FF1vnU0Z8s-37">
          <mxGeometry relative="1" as="geometry" />
        </mxCell>
        <mxCell id="f_99bIKKR3FF1vnU0Z8s-42" value="Requests information from" style="edgeLabel;html=1;align=center;verticalAlign=middle;resizable=0;points=[];" vertex="1" connectable="0" parent="f_99bIKKR3FF1vnU0Z8s-41">
          <mxGeometry x="-0.4757" y="1" relative="1" as="geometry">
            <mxPoint as="offset" />
          </mxGeometry>
        </mxCell>
        <object placeholders="1" c4Name="Web Page" c4Type="Container" c4Technology="Javascript" c4Description="Presents the information and allows for adding and editing data." label="&lt;font style=&quot;font-size: 16px&quot;&gt;&lt;b&gt;%c4Name%&lt;/b&gt;&lt;/font&gt;&lt;div&gt;[%c4Type%:&amp;nbsp;%c4Technology%]&lt;/div&gt;&lt;br&gt;&lt;div&gt;&lt;font style=&quot;font-size: 11px&quot;&gt;&lt;font color=&quot;#E6E6E6&quot;&gt;%c4Description%&lt;/font&gt;&lt;/div&gt;" id="f_99bIKKR3FF1vnU0Z8s-13">
          <mxCell style="shape=mxgraph.c4.webBrowserContainer2;whiteSpace=wrap;html=1;boundedLbl=1;rounded=0;labelBackgroundColor=none;strokeColor=#118ACD;fillColor=#23A2D9;strokeColor=#118ACD;strokeColor2=#0E7DAD;fontSize=12;fontColor=#ffffff;align=center;metaEdit=1;points=[[0.5,0,0],[1,0.25,0],[1,0.5,0],[1,0.75,0],[0.5,1,0],[0,0.75,0],[0,0.5,0],[0,0.25,0]];resizable=0;" vertex="1" parent="1">
            <mxGeometry x="340" y="40" width="240" height="160" as="geometry" />
          </mxCell>
        </object>
        <object placeholders="1" c4Name="Database" c4Type="Container" c4Technology="Postgresql" c4Description="Stores the application data, user credentials, and logs." label="&lt;font style=&quot;font-size: 16px&quot;&gt;&lt;b&gt;%c4Name%&lt;/b&gt;&lt;/font&gt;&lt;div&gt;[%c4Type%:&amp;nbsp;%c4Technology%]&lt;/div&gt;&lt;br&gt;&lt;div&gt;&lt;font style=&quot;font-size: 11px&quot;&gt;&lt;font color=&quot;#E6E6E6&quot;&gt;%c4Description%&lt;/font&gt;&lt;/div&gt;" id="f_99bIKKR3FF1vnU0Z8s-16">
          <mxCell style="shape=cylinder3;size=15;whiteSpace=wrap;html=1;boundedLbl=1;rounded=0;labelBackgroundColor=none;fillColor=#23A2D9;fontSize=12;fontColor=#ffffff;align=center;strokeColor=#0E7DAD;metaEdit=1;points=[[0.5,0,0],[1,0.25,0],[1,0.5,0],[1,0.75,0],[0.5,1,0],[0,0.75,0],[0,0.5,0],[0,0.25,0]];resizable=0;" vertex="1" parent="1">
            <mxGeometry x="350" y="890" width="240" height="120" as="geometry" />
          </mxCell>
        </object>
        <mxCell id="f_99bIKKR3FF1vnU0Z8s-23" value="&lt;p style=&quot;line-height: 80%;&quot;&gt;&lt;/p&gt;&lt;h1 style=&quot;margin-top: 0px; line-height: 50%;&quot;&gt;&lt;span style=&quot;background-color: initial;&quot;&gt;&lt;span style=&quot;font-size: 19px;&quot;&gt;API Application&lt;br&gt;&lt;/span&gt;&lt;/span&gt;&lt;span style=&quot;font-size: 12px; font-weight: 400;&quot;&gt;Gets information from the Database and presents it.&amp;nbsp; Gets information from sources and sends it to the database.&lt;/span&gt;&lt;/h1&gt;&lt;p&gt;&lt;/p&gt;" style="text;html=1;whiteSpace=wrap;overflow=hidden;rounded=0;" vertex="1" parent="1">
          <mxGeometry x="40" y="790" width="230" height="80" as="geometry" />
        </mxCell>
        <object placeholders="1" c4Name="Authentication Component" c4Type="Component" c4Technology="Django Rest Framework" c4Description="Controls who has access to the system" label="&lt;font style=&quot;font-size: 16px&quot;&gt;&lt;b&gt;%c4Name%&lt;/b&gt;&lt;/font&gt;&lt;div&gt;[%c4Type%: %c4Technology%]&lt;/div&gt;&lt;br&gt;&lt;div&gt;&lt;font style=&quot;font-size: 11px&quot;&gt;%c4Description%&lt;/font&gt;&lt;/div&gt;" id="f_99bIKKR3FF1vnU0Z8s-24">
          <mxCell style="rounded=1;whiteSpace=wrap;html=1;labelBackgroundColor=none;fillColor=#63BEF2;fontColor=#ffffff;align=center;arcSize=6;strokeColor=#2086C9;metaEdit=1;resizable=0;points=[[0.25,0,0],[0.5,0,0],[0.75,0,0],[1,0.25,0],[1,0.5,0],[1,0.75,0],[0.75,1,0],[0.5,1,0],[0.25,1,0],[0,0.75,0],[0,0.5,0],[0,0.25,0]];" vertex="1" parent="1">
            <mxGeometry x="60" y="480" width="240" height="120" as="geometry" />
          </mxCell>
        </object>
        <object placeholders="1" c4Name="Transactions Component" c4Type="Component" c4Technology="Django Rest Framework" c4Description="Controls the coin transactions" label="&lt;font style=&quot;font-size: 16px&quot;&gt;&lt;b&gt;%c4Name%&lt;/b&gt;&lt;/font&gt;&lt;div&gt;[%c4Type%: %c4Technology%]&lt;/div&gt;&lt;br&gt;&lt;div&gt;&lt;font style=&quot;font-size: 11px&quot;&gt;%c4Description%&lt;/font&gt;&lt;/div&gt;" id="f_99bIKKR3FF1vnU0Z8s-25">
          <mxCell style="rounded=1;whiteSpace=wrap;html=1;labelBackgroundColor=none;fillColor=#63BEF2;fontColor=#ffffff;align=center;arcSize=6;strokeColor=#2086C9;metaEdit=1;resizable=0;points=[[0.25,0,0],[0.5,0,0],[0.75,0,0],[1,0.25,0],[1,0.5,0],[1,0.75,0],[0.75,1,0],[0.5,1,0],[0.25,1,0],[0,0.75,0],[0,0.5,0],[0,0.25,0]];" vertex="1" parent="1">
            <mxGeometry x="690" y="640" width="240" height="120" as="geometry" />
          </mxCell>
        </object>
        <mxCell id="f_99bIKKR3FF1vnU0Z8s-51" style="rounded=0;orthogonalLoop=1;jettySize=auto;html=1;dashed=1;" edge="1" parent="1" source="f_99bIKKR3FF1vnU0Z8s-26" target="f_99bIKKR3FF1vnU0Z8s-16">
          <mxGeometry relative="1" as="geometry" />
        </mxCell>
        <mxCell id="f_99bIKKR3FF1vnU0Z8s-54" value="Reads and Writes Data&amp;nbsp;" style="edgeLabel;html=1;align=center;verticalAlign=middle;resizable=0;points=[];" vertex="1" connectable="0" parent="f_99bIKKR3FF1vnU0Z8s-51">
          <mxGeometry x="-0.1326" y="-4" relative="1" as="geometry">
            <mxPoint as="offset" />
          </mxGeometry>
        </mxCell>
        <object placeholders="1" c4Name="Calendar Component" c4Type="Component" c4Technology="Django Rest Framework" c4Description="Sets the current day, and stores important events." label="&lt;font style=&quot;font-size: 16px&quot;&gt;&lt;b&gt;%c4Name%&lt;/b&gt;&lt;/font&gt;&lt;div&gt;[%c4Type%: %c4Technology%]&lt;/div&gt;&lt;br&gt;&lt;div&gt;&lt;font style=&quot;font-size: 11px&quot;&gt;%c4Description%&lt;/font&gt;&lt;/div&gt;" id="f_99bIKKR3FF1vnU0Z8s-26">
          <mxCell style="rounded=1;whiteSpace=wrap;html=1;labelBackgroundColor=none;fillColor=#63BEF2;fontColor=#ffffff;align=center;arcSize=6;strokeColor=#2086C9;metaEdit=1;resizable=0;points=[[0.25,0,0],[0.5,0,0],[0.75,0,0],[1,0.25,0],[1,0.5,0],[1,0.75,0],[0.75,1,0],[0.5,1,0],[0.25,1,0],[0,0.75,0],[0,0.5,0],[0,0.25,0]];" vertex="1" parent="1">
            <mxGeometry x="160" y="640" width="240" height="120" as="geometry" />
          </mxCell>
        </object>
        <mxCell id="f_99bIKKR3FF1vnU0Z8s-52" style="rounded=0;orthogonalLoop=1;jettySize=auto;html=1;dashed=1;" edge="1" parent="1" source="f_99bIKKR3FF1vnU0Z8s-28" target="f_99bIKKR3FF1vnU0Z8s-16">
          <mxGeometry relative="1" as="geometry" />
        </mxCell>
        <mxCell id="f_99bIKKR3FF1vnU0Z8s-55" value="Reads and Writes Data&amp;nbsp;" style="edgeLabel;html=1;align=center;verticalAlign=middle;resizable=0;points=[];" vertex="1" connectable="0" parent="f_99bIKKR3FF1vnU0Z8s-52">
          <mxGeometry x="-0.0628" relative="1" as="geometry">
            <mxPoint as="offset" />
          </mxGeometry>
        </mxCell>
        <object placeholders="1" c4Name="Items Component" c4Type="Component" c4Technology="Django Rest Framework" c4Description="Stores and moves Items." label="&lt;font style=&quot;font-size: 16px&quot;&gt;&lt;b&gt;%c4Name%&lt;/b&gt;&lt;/font&gt;&lt;div&gt;[%c4Type%: %c4Technology%]&lt;/div&gt;&lt;br&gt;&lt;div&gt;&lt;font style=&quot;font-size: 11px&quot;&gt;%c4Description%&lt;/font&gt;&lt;/div&gt;" id="f_99bIKKR3FF1vnU0Z8s-28">
          <mxCell style="rounded=1;whiteSpace=wrap;html=1;labelBackgroundColor=none;fillColor=#63BEF2;fontColor=#ffffff;align=center;arcSize=6;strokeColor=#2086C9;metaEdit=1;resizable=0;points=[[0.25,0,0],[0.5,0,0],[0.75,0,0],[1,0.25,0],[1,0.5,0],[1,0.75,0],[0.75,1,0],[0.5,1,0],[0.25,1,0],[0,0.75,0],[0,0.5,0],[0,0.25,0]];" vertex="1" parent="1">
            <mxGeometry x="425" y="640" width="240" height="120" as="geometry" />
          </mxCell>
        </object>
        <object placeholders="1" c4Name="Sign-in Mechanism" c4Type="Container" c4Technology="Django" c4Description="Allows Users to Sign in and View their Campaigns" label="&lt;font style=&quot;font-size: 16px&quot;&gt;&lt;b&gt;%c4Name%&lt;/b&gt;&lt;/font&gt;&lt;div&gt;[%c4Type%: %c4Technology%]&lt;/div&gt;&lt;br&gt;&lt;div&gt;&lt;font style=&quot;font-size: 11px&quot;&gt;&lt;font color=&quot;#E6E6E6&quot;&gt;%c4Description%&lt;/font&gt;&lt;/div&gt;" id="f_99bIKKR3FF1vnU0Z8s-34">
          <mxCell style="rounded=1;whiteSpace=wrap;html=1;fontSize=11;labelBackgroundColor=none;fillColor=#23A2D9;fontColor=#ffffff;align=center;arcSize=10;strokeColor=#0E7DAD;metaEdit=1;resizable=0;points=[[0.25,0,0],[0.5,0,0],[0.75,0,0],[1,0.25,0],[1,0.5,0],[1,0.75,0],[0.75,1,0],[0.5,1,0],[0.25,1,0],[0,0.75,0],[0,0.5,0],[0,0.25,0]];" vertex="1" parent="1">
            <mxGeometry x="60" y="300" width="240" height="120" as="geometry" />
          </mxCell>
        </object>
        <mxCell id="f_99bIKKR3FF1vnU0Z8s-35" style="rounded=0;orthogonalLoop=1;jettySize=auto;html=1;entryX=0.5;entryY=0;entryDx=0;entryDy=0;entryPerimeter=0;dashed=1;" edge="1" parent="1" source="f_99bIKKR3FF1vnU0Z8s-34" target="f_99bIKKR3FF1vnU0Z8s-24">
          <mxGeometry relative="1" as="geometry" />
        </mxCell>
        <mxCell id="f_99bIKKR3FF1vnU0Z8s-44" value="Makes requests to" style="edgeLabel;html=1;align=center;verticalAlign=middle;resizable=0;points=[];" vertex="1" connectable="0" parent="f_99bIKKR3FF1vnU0Z8s-35">
          <mxGeometry x="0.1" y="2" relative="1" as="geometry">
            <mxPoint as="offset" />
          </mxGeometry>
        </mxCell>
        <mxCell id="f_99bIKKR3FF1vnU0Z8s-46" style="rounded=0;orthogonalLoop=1;jettySize=auto;html=1;dashed=1;" edge="1" parent="1" source="f_99bIKKR3FF1vnU0Z8s-37" target="f_99bIKKR3FF1vnU0Z8s-28">
          <mxGeometry relative="1" as="geometry" />
        </mxCell>
        <mxCell id="f_99bIKKR3FF1vnU0Z8s-49" value="Makes Requests to" style="edgeLabel;html=1;align=center;verticalAlign=middle;resizable=0;points=[];" vertex="1" connectable="0" parent="f_99bIKKR3FF1vnU0Z8s-46">
          <mxGeometry x="-0.0554" y="-1" relative="1" as="geometry">
            <mxPoint as="offset" />
          </mxGeometry>
        </mxCell>
        <object placeholders="1" c4Name="Campaign Controller" c4Type="Container" c4Technology="Django" c4Description="Controls which campaign has been accessed, and the information associated with it." label="&lt;font style=&quot;font-size: 16px&quot;&gt;&lt;b&gt;%c4Name%&lt;/b&gt;&lt;/font&gt;&lt;div&gt;[%c4Type%: %c4Technology%]&lt;/div&gt;&lt;br&gt;&lt;div&gt;&lt;font style=&quot;font-size: 11px&quot;&gt;&lt;font color=&quot;#E6E6E6&quot;&gt;%c4Description%&lt;/font&gt;&lt;/div&gt;" id="f_99bIKKR3FF1vnU0Z8s-37">
          <mxCell style="rounded=1;whiteSpace=wrap;html=1;fontSize=11;labelBackgroundColor=none;fillColor=#23A2D9;fontColor=#ffffff;align=center;arcSize=10;strokeColor=#0E7DAD;metaEdit=1;resizable=0;points=[[0.25,0,0],[0.5,0,0],[0.75,0,0],[1,0.25,0],[1,0.5,0],[1,0.75,0],[0.75,1,0],[0.5,1,0],[0.25,1,0],[0,0.75,0],[0,0.5,0],[0,0.25,0]];" vertex="1" parent="1">
            <mxGeometry x="500" y="290" width="240" height="120" as="geometry" />
          </mxCell>
        </object>
        <mxCell id="f_99bIKKR3FF1vnU0Z8s-38" style="rounded=0;orthogonalLoop=1;jettySize=auto;html=1;entryX=1;entryY=0.25;entryDx=0;entryDy=0;entryPerimeter=0;dashed=1;" edge="1" parent="1" source="f_99bIKKR3FF1vnU0Z8s-37" target="f_99bIKKR3FF1vnU0Z8s-24">
          <mxGeometry relative="1" as="geometry" />
        </mxCell>
        <mxCell id="f_99bIKKR3FF1vnU0Z8s-40" value="Verifies with" style="edgeLabel;html=1;align=center;verticalAlign=middle;resizable=0;points=[];" vertex="1" connectable="0" parent="f_99bIKKR3FF1vnU0Z8s-38">
          <mxGeometry x="-0.336" y="1" relative="1" as="geometry">
            <mxPoint as="offset" />
          </mxGeometry>
        </mxCell>
        <mxCell id="f_99bIKKR3FF1vnU0Z8s-45" style="rounded=0;orthogonalLoop=1;jettySize=auto;html=1;entryX=0.75;entryY=0;entryDx=0;entryDy=0;entryPerimeter=0;dashed=1;" edge="1" parent="1" source="f_99bIKKR3FF1vnU0Z8s-37" target="f_99bIKKR3FF1vnU0Z8s-26">
          <mxGeometry relative="1" as="geometry" />
        </mxCell>
        <mxCell id="f_99bIKKR3FF1vnU0Z8s-48" value="Makes Requests to" style="edgeLabel;html=1;align=center;verticalAlign=middle;resizable=0;points=[];" vertex="1" connectable="0" parent="f_99bIKKR3FF1vnU0Z8s-45">
          <mxGeometry x="-0.1756" y="-3" relative="1" as="geometry">
            <mxPoint as="offset" />
          </mxGeometry>
        </mxCell>
        <mxCell id="f_99bIKKR3FF1vnU0Z8s-47" style="rounded=0;orthogonalLoop=1;jettySize=auto;html=1;entryX=0.25;entryY=0;entryDx=0;entryDy=0;entryPerimeter=0;dashed=1;" edge="1" parent="1" source="f_99bIKKR3FF1vnU0Z8s-37" target="f_99bIKKR3FF1vnU0Z8s-25">
          <mxGeometry relative="1" as="geometry" />
        </mxCell>
        <mxCell id="f_99bIKKR3FF1vnU0Z8s-50" value="Makes Requests to" style="edgeLabel;html=1;align=center;verticalAlign=middle;resizable=0;points=[];" vertex="1" connectable="0" parent="f_99bIKKR3FF1vnU0Z8s-47">
          <mxGeometry x="-0.164" y="4" relative="1" as="geometry">
            <mxPoint x="1" as="offset" />
          </mxGeometry>
        </mxCell>
        <mxCell id="f_99bIKKR3FF1vnU0Z8s-53" style="rounded=0;orthogonalLoop=1;jettySize=auto;html=1;entryX=0.792;entryY=0;entryDx=0;entryDy=0;entryPerimeter=0;dashed=1;" edge="1" parent="1" source="f_99bIKKR3FF1vnU0Z8s-25" target="f_99bIKKR3FF1vnU0Z8s-16">
          <mxGeometry relative="1" as="geometry" />
        </mxCell>
        <mxCell id="f_99bIKKR3FF1vnU0Z8s-56" value="Reads and Writes Data&amp;nbsp;" style="edgeLabel;html=1;align=center;verticalAlign=middle;resizable=0;points=[];" vertex="1" connectable="0" parent="f_99bIKKR3FF1vnU0Z8s-53">
          <mxGeometry x="0.0234" y="3" relative="1" as="geometry">
            <mxPoint as="offset" />
          </mxGeometry>
        </mxCell>
        <object placeholders="1" c4Name="Discord Bot" c4Type="Software System" c4Description="Allows Players to request information about the campaign without having access to the site." label="&lt;font style=&quot;font-size: 16px&quot;&gt;&lt;b&gt;%c4Name%&lt;/b&gt;&lt;/font&gt;&lt;div&gt;[%c4Type%]&lt;/div&gt;&lt;br&gt;&lt;div&gt;&lt;font style=&quot;font-size: 11px&quot;&gt;&lt;font color=&quot;#cccccc&quot;&gt;%c4Description%&lt;/font&gt;&lt;/div&gt;" id="f_99bIKKR3FF1vnU0Z8s-57">
          <mxCell style="rounded=1;whiteSpace=wrap;html=1;labelBackgroundColor=none;fillColor=#8C8496;fontColor=#ffffff;align=center;arcSize=10;strokeColor=#736782;metaEdit=1;resizable=0;points=[[0.25,0,0],[0.5,0,0],[0.75,0,0],[1,0.25,0],[1,0.5,0],[1,0.75,0],[0.75,1,0],[0.5,1,0],[0.25,1,0],[0,0.75,0],[0,0.5,0],[0,0.25,0]];" vertex="1" parent="1">
            <mxGeometry x="1010" y="310" width="240" height="120" as="geometry" />
          </mxCell>
        </object>
        <mxCell id="f_99bIKKR3FF1vnU0Z8s-58" style="rounded=0;orthogonalLoop=1;jettySize=auto;html=1;entryX=1;entryY=0.5;entryDx=0;entryDy=0;entryPerimeter=0;dashed=1;" edge="1" parent="1" source="f_99bIKKR3FF1vnU0Z8s-57" target="f_99bIKKR3FF1vnU0Z8s-37">
          <mxGeometry relative="1" as="geometry" />
        </mxCell>
        <mxCell id="f_99bIKKR3FF1vnU0Z8s-59" value="Request information from" style="edgeLabel;html=1;align=center;verticalAlign=middle;resizable=0;points=[];" vertex="1" connectable="0" parent="f_99bIKKR3FF1vnU0Z8s-58">
          <mxGeometry x="-0.4344" y="5" relative="1" as="geometry">
            <mxPoint y="-10" as="offset" />
          </mxGeometry>
        </mxCell>
      </root>
    </mxGraphModel>
  </diagram>
</mxfile>
